<svg xmlns="http://www.w3.org/2000/svg" viewBox="0 0 24 24" id='DigitalAssessoriesSvg'>
    <defs>
        <clipPath id="ya19vp6cca">
            <path data-name="Rectangle 15795" transform="translate(-3957 16317)" style="fill:#fff;stroke:#707070" d="M0 0h24v24H0z"/>
        </clipPath>
    </defs>
    <g data-name="Mask Group 82" transform="translate(3957 -16317)" style="clip-path:url(#ya19vp6cca)">
        <g data-name="Group 39318">
            <path data-name="Path 43411" d="M5341.669 534.6c.449.791.888 1.528 1.288 2.284a1.568 1.568 0 0 1-.12 1.714 1.6 1.6 0 0 1-1.571.7 1.7 1.7 0 0 1-1.326-.928l-1.811-3.138a10.472 10.472 0 0 0-.181-.3 10.7 10.7 0 0 1-1.81-.018 2.839 2.839 0 0 1-2.276-2.414 2.907 2.907 0 0 1 1.344-2.93c1.09-.665 2.212-1.279 3.309-1.933a2.331 2.331 0 0 0 .627-.542q2.55-3.223 5.078-6.463a3.942 3.942 0 0 1 .41-.48 1.243 1.243 0 0 1 1.945.339q.694 1.154 1.345 2.335a.47.47 0 0 0 .562.3c.219-.042.456.007.672-.042.668-.156 1.013.151 1.311.727.73 1.416.792.883-.1 2.234a.752.752 0 0 0-.031.968c.387.585.717 1.208 1.061 1.82a1.285 1.285 0 0 1-.978 2.03c-2.634.5-5.262 1.025-7.892 1.541-.025.005-.047.029-.129.083.146.255.291.517.443.775a.489.489 0 0 1-.2.773 54.4 54.4 0 0 0-.97.565zm2.7-12.866a1.638 1.638 0 0 1-.113.221l-4.4 5.6a.393.393 0 0 0-.021.522 174.671 174.671 0 0 1 1.869 3.247.473.473 0 0 0 .6.276c1.538-.315 3.083-.61 4.623-.913.765-.151 1.525-.306 2.338-.469zm-3.249 10.253-2.113-3.659c-1.173.685-2.332 1.315-3.439 2.026a2.043 2.043 0 0 0-.585 2.8 2.085 2.085 0 0 0 2.726.783c1.139-.609 2.243-1.279 3.414-1.951zm9.092-1.962c.53-.024.675-.369.427-.8q-2.355-4.088-4.715-8.173c-.043-.073-.078-.187-.138-.2a.966.966 0 0 0-.552-.081c-.208.084-.307.272-.14.543.449.729.862 1.48 1.291 2.222l3.58 6.2a1.809 1.809 0 0 0 .25.288zm-11.589 4.38c.7 1.208 1.364 2.373 2.041 3.534a.849.849 0 0 0 1.2.431.858.858 0 0 0 .259-1.274c-.59-1.034-1.188-2.062-1.784-3.094-.082-.141-.167-.281-.26-.437zm10.942-8.737c.6-.706.618-.812.06-1.564-.273-.368-.642-.083-1.05-.153zm-8.328 8.2.723-.425-.422-.718-.72.415z" transform="translate(-9289.606 15799.882)"/>
            <path data-name="Path 43412" d="M5354.5 520.62c.1.1.294.209.32.347a.549.549 0 0 1-.185.455c-.344.239-.722.426-1.089.63-.416.231-.83.466-1.253.685-.233.121-.482.071-.552-.18a.589.589 0 0 1 .152-.527c.764-.465 1.555-.887 2.339-1.32a1.871 1.871 0 0 1 .268-.09z" transform="translate(-9289.042 15799.907)"/>
            <path data-name="Path 43413" d="M5349.477 521.007c.188-.674.335-1.273.541-1.85a.512.512 0 0 1 .469-.2.528.528 0 0 1 .279.433 12.364 12.364 0 0 1-.461 1.7.536.536 0 0 1-.453.244c-.138-.011-.258-.216-.375-.327z" transform="translate(-9289.112 15799.854)"/>
            <path data-name="Path 43414" d="M5353.907 525.81c-.672-.191-1.27-.339-1.848-.542a.481.481 0 0 1-.2-.435c.052-.142.29-.332.413-.309a13.037 13.037 0 0 1 1.739.464.537.537 0 0 1 .232.457c-.013.138-.222.255-.336.365z" transform="translate(-9289.038 15800.03)"/>
            <path data-name="Path 43415" d="M5336.707 532.945a1.234 1.234 0 0 1-1.027-.564c-.142-.213-.163-.466.074-.585a.582.582 0 0 1 .543.056.576.576 0 0 0 .854.074 1.631 1.631 0 0 1 .553-.294.61.61 0 0 1 .5.152.484.484 0 0 1-.035.474c-.448.293-.93.533-1.4.792z" transform="translate(-9289.55 15800.254)"/>
            <path data-name="Path 43416" d="M5339.715 531.274c-.167.105-.341.3-.5.29a.575.575 0 0 1-.375-.4.335.335 0 0 1 .417-.388c.165.034.305.2.456.314z" transform="translate(-9289.447 15800.227)"/>
        </g>
    </g>
</svg>
