<svg xmlns="http://www.w3.org/2000/svg" viewBox="0 0 20 20" id="HouseSvg">
    <defs>
        <clipPath id="sn3v3v19ya">
            <path data-name="Rectangle 15795" transform="translate(-3957 16317)" style="fill:#fff;stroke:#707070" d="M0 0h20v20H0z"/>
        </clipPath>
    </defs>
    <g data-name="Mask Group 82" transform="translate(3957 -16317)" style="clip-path:url(#sn3v3v19ya)">
        <g data-name="Group 14840">
            <path data-name="Path 7885" d="M5455.971 6971.533v7.415a1.726 1.726 0 0 1-1.833 1.826h-12.52a1.728 1.728 0 0 1-1.842-1.854v-7.483c-.171.167-.286.282-.405.395a.615.615 0 0 1-.925.06.6.6 0 0 1 .062-.9c2.48-2.485 4.952-4.979 7.453-7.444a2.724 2.724 0 0 1 3.879.045q3.7 3.668 7.372 7.365a.622.622 0 0 1 .1.925c-.258.275-.622.251-.951-.077a3.413 3.413 0 0 1-.271-.354zm-5.1 8.044h3.2c.516 0 .7-.183.7-.7 0-2.785 0-5.57-.008-8.356a.759.759 0 0 0-.193-.483q-2.742-2.769-5.506-5.518a1.555 1.555 0 0 0-2.378-.006q-2.759 2.751-5.506 5.518a.765.765 0 0 0-.2.479c-.017 1.188-.009 2.374-.009 3.56v4.837c0 .406.167.654.5.658 1.121.016 2.242.007 3.4.007v-4.635a1.876 1.876 0 0 1 1.98-1.966h2.137a1.862 1.862 0 0 1 1.877 1.879c.007 1.138 0 2.273 0 3.41zm-1.2-.019c0-1.593.005-3.142 0-4.691a.661.661 0 0 0-.721-.689c-.687-.008-1.375-.006-2.062 0-.573 0-.814.245-.814.825v4.236c0 .107.013.215.021.321z" transform="translate(-9394.872 9355.233)"/>
        </g>
    </g>
</svg>
