<svg xmlns="http://www.w3.org/2000/svg" viewBox="0 0 14 14" id='eye-icon'>
    <defs>
        <clipPath id="86svljs5va">
            <path data-name="Rectangle 519" style="fill:none" d="M0 0h14v14H0z"/>
        </clipPath>
    </defs>
    <g data-name="Mask Group 19" style="clip-path:url(#86svljs5va)">
        <g data-name="Group 13161">
            <path data-name="Path 9255" d="M-3772.417-4621.529a7.17 7.17 0 0 1-4.942-2.066 17.4 17.4 0 0 1-1.227-1.344.475.475 0 0 1-.025-.674 8.6 8.6 0 0 1 3.781-2.978 6.652 6.652 0 0 1 6.268.751 9.318 9.318 0 0 1 2.308 2.2.488.488 0 0 1 .022.675 8.352 8.352 0 0 1-4.293 3.147 18.542 18.542 0 0 1-1.877.354zm2.649-3.747a2.665 2.665 0 0 0-2.633-2.667 2.665 2.665 0 0 0-2.673 2.627 2.662 2.662 0 0 0 2.644 2.68 2.67 2.67 0 0 0 2.662-2.64z"  transform="translate(3779.423 4632.26)"/>
            <path data-name="Path 9256" d="M-3759.022-4620.319a1.424 1.424 0 0 1 1.422 1.424 1.444 1.444 0 0 1-1.421 1.434 1.431 1.431 0 0 1-1.436-1.439 1.443 1.443 0 0 1 1.435-1.419z" transform="translate(3766.031 4625.86)" style="opacity:.64;"/>
        </g>
    </g>
</svg>
