<svg xmlns="http://www.w3.org/2000/svg" viewBox="0 0 24 24" id='Watchsvg'>
    <defs>
        <clipPath id="d3ymp8k7va">
            <path data-name="Rectangle 15795" transform="translate(-3957 16317)" style="fill:#fff;stroke:#707070" d="M0 0h24v24H0z"/>
        </clipPath>
    </defs>
    <g data-name="Mask Group 82" transform="translate(3957 -16317)" style="clip-path:url(#d3ymp8k7va)">
        <g data-name="Group 39317">
            <path data-name="Path 43409" d="M5305.485 528.938c0-1.343.007-2.685 0-4.028a2.429 2.429 0 0 1 1.084-2.168.541.541 0 0 0 .21-.339c.1-.809.2-1.621.265-2.435a2.31 2.31 0 0 1 2.382-2.242q2.6-.011 5.209 0a2.312 2.312 0 0 1 2.392 2.232c.066.813.161 1.625.267 2.435a.609.609 0 0 0 .235.368 2.37 2.37 0 0 1 1.054 2.051v8.231a2.381 2.381 0 0 1-1.075 2.083.6.6 0 0 0-.228.373c-.1.78-.192 1.563-.253 2.348a2.333 2.333 0 0 1-2.426 2.3q-2.583.008-5.165 0a2.331 2.331 0 0 1-2.39-2.242c-.064-.8-.152-1.6-.255-2.391a.658.658 0 0 0-.253-.406 2.365 2.365 0 0 1-1.051-2.051q-.003-2.062-.002-4.119zm6.592-5.29h-4.113c-.835 0-1.216.37-1.218 1.194q-.007 4.091 0 8.181c0 .823.383 1.195 1.217 1.2q4.069.006 8.139 0c.834 0 1.216-.372 1.217-1.194q.009-4.091 0-8.182c0-.822-.382-1.192-1.217-1.195-1.342-.007-2.684-.004-4.025-.004zm3.937-1.28c-.093-.875-.157-1.7-.272-2.523a.988.988 0 0 0-1.042-.874q-2.667-.018-5.336 0a.906.906 0 0 0-.974.668c-.171.891-.236 1.8-.349 2.729zm-.006 13.143h-7.953c.1.885.167 1.74.3 2.584a.965.965 0 0 0 1.012.8q2.667.018 5.338 0a.966.966 0 0 0 1.01-.8c.128-.845.195-1.695.293-2.584z" transform="translate(-9257.683 15800.469)"/>
            <path data-name="Path 43410" d="M5311.041 527.773v-1.18c.005-.537.224-.83.619-.839s.633.284.638.815c.006.611.02 1.224-.006 1.834a.606.606 0 0 0 .381.649 7.49 7.49 0 0 1 .859.517.61.61 0 0 1 .214.871.587.587 0 0 1-.843.187 14.933 14.933 0 0 1-1.526-.929 1.033 1.033 0 0 1-.321-.66 10.509 10.509 0 0 1-.015-1.265z" transform="translate(-9257.634 15800.542)"/>
        </g>
    </g>
</svg>
