<svg xmlns="http://www.w3.org/2000/svg" id="address" viewBox="0 0 12.798 17.058">
    <g data-name="Group 7511">
        <path data-name="Path 5626" d="M313.382 452.939a6.4 6.4 0 0 1 6.388 6.74 9.126 9.126 0 0 1-1.206 3.776 27.611 27.611 0 0 1-4.916 6.4c-.171.172-.325.208-.51.021a25.6 25.6 0 0 1-5.387-7.348 6.894 6.894 0 0 1-.441-5.209 6.421 6.421 0 0 1 6.072-4.38zm0 3.468a2.932 2.932 0 1 0 2.929 2.952 2.936 2.936 0 0 0-2.927-2.952z" transform="translate(-306.983 -452.939)" style="fill: #fff"></path>
    </g>
</svg>