
<svg xmlns="http://www.w3.org/2000/svg" id="email" viewBox="0 0 15.186 12.904">
    <g data-name="Group 7517">
        <path data-name="Path 5627" d="m781.333 470.37 4.467 3.069c.884.608 1.776 1.2 2.649 1.83a.715.715 0 0 0 .948.006c2.248-1.562 4.506-3.106 6.761-4.656.1-.071.209-.137.361-.234v7.795a1.937 1.937 0 0 1-2.007 2.145h-11.163a1.936 1.936 0 0 1-2.014-2.138v-7.423z" transform="translate(-781.333 -467.421)" style="fill: #fff"></path>
        <path data-name="Path 5628" d="M789.3 452.94h5.654a1.873 1.873 0 0 1 1.807 1.354.365.365 0 0 1-.15.5q-3.56 2.428-7.1 4.883a.349.349 0 0 1-.474-.01q-3.533-2.441-7.077-4.863a.381.381 0 0 1-.161-.521 1.874 1.874 0 0 1 1.786-1.339c1.902-.007 3.808-.004 5.715-.004z" transform="translate(-781.683 -452.939)" style="fill: #fff"></path>
    </g>
</svg>