<svg xmlns="http://www.w3.org/2000/svg" viewBox="0 0 20 20" id="featuresicon">
    <defs>
        <clipPath id="wjh891sjza">
            <path data-name="Rectangle 16618" transform="translate(-3957 16317)" style="fill:#fff;stroke:#707070" d="M0 0h20v20H0z"/>
        </clipPath>
    </defs>
    <g data-name="Mask Group 155" transform="translate(3957 -16317)" style="clip-path:url(#wjh891sjza)">
        <g data-name="Group 38003">
            <path data-name="Path 10015" d="M1946.5 5010.231c.486.026.974.036 1.458.083a2.55 2.55 0 0 1 2.527 2.268 14.9 14.9 0 0 1 0 3.6 2.513 2.513 0 0 1-2.519 2.269 22.747 22.747 0 0 1-3 0 2.639 2.639 0 0 1-2.547-2.532 19.772 19.772 0 0 1-.052-2.6 2.884 2.884 0 0 1 3.151-3.056c.325-.012.65 0 .975 0zm-.047 7.008c.483-.028.971-.035 1.454-.088a1.357 1.357 0 0 0 1.334-1.333 26.092 26.092 0 0 0 0-2.875 1.313 1.313 0 0 0-1.3-1.313 26.766 26.766 0 0 0-2.916 0 1.307 1.307 0 0 0-1.291 1.281 26.848 26.848 0 0 0 0 2.957 1.348 1.348 0 0 0 1.3 1.281c.466.051.937.061 1.415.09z" transform="translate(-5888.288 11307.425)"/>
            <path data-name="Path 10016" d="M1822.9 5143.177c-.033.534-.028 1.107-.113 1.666a2.507 2.507 0 0 1-2.241 2.286 15.318 15.318 0 0 1-3.6 0 2.514 2.514 0 0 1-2.268-2.521 22.57 22.57 0 0 1 0-3 2.6 2.6 0 0 1 2.533-2.539 18.365 18.365 0 0 1 3.473.09 2.5 2.5 0 0 1 2.114 2.4c.056.527.068 1.055.102 1.618zm-1.3-.02c-.027-.477-.034-.965-.088-1.448a1.356 1.356 0 0 0-1.328-1.339 25.908 25.908 0 0 0-2.875 0 1.314 1.314 0 0 0-1.317 1.3 26.475 26.475 0 0 0 0 2.917 1.317 1.317 0 0 0 1.317 1.3 26.148 26.148 0 0 0 2.875 0 1.358 1.358 0 0 0 1.328-1.339c.046-.459.054-.92.082-1.39z" transform="translate(-5770.953 11189.09)"/>
            <path data-name="Path 10017" d="M1946.561 5138.6a4.128 4.128 0 1 1-4.137 4.1 4.161 4.161 0 0 1 4.137-4.1zm-.014 1.3a2.827 2.827 0 1 0 2.83 2.813 2.862 2.862 0 0 0-2.83-2.813z" transform="translate(-5888.358 11189.487)"/>
            <path data-name="Path 10018" d="M1818.91 5010.231c.486.026.974.036 1.458.083a2.55 2.55 0 0 1 2.527 2.268 14.907 14.907 0 0 1 0 3.6 2.513 2.513 0 0 1-2.519 2.269 22.747 22.747 0 0 1-3 0 2.639 2.639 0 0 1-2.547-2.532 19.793 19.793 0 0 1-.052-2.6 2.884 2.884 0 0 1 3.151-3.056c.325-.012.65 0 .975 0zm-.047 7.008c.483-.028.971-.035 1.454-.088a1.357 1.357 0 0 0 1.334-1.333 26.062 26.062 0 0 0 0-2.875 1.313 1.313 0 0 0-1.3-1.313 26.763 26.763 0 0 0-2.916 0 1.307 1.307 0 0 0-1.291 1.281 26.848 26.848 0 0 0 0 2.957 1.348 1.348 0 0 0 1.3 1.281c.467.051.941.061 1.419.09z" transform="translate(-5771.072 11307.425)"/>
        </g>
    </g>
</svg>
