
<svg xmlns="http://www.w3.org/2000/svg" id="footer-link"  viewBox="0 0 9.709 9.7">
     <g data-name="Group 7504">
         <path data-name="Path 5624" d="M664.717 392.592c-.076-.08-.139-.15-.206-.217l-3.425-3.426a1.764 1.764 0 0 1-.2-.213.629.629 0 0 1 .875-.877 1.735 1.735 0 0 1 .214.194l3.966 3.965c.421.422.422.723 0 1.143l-3.966 3.966a2.255 2.255 0 0 1-.172.162.629.629 0 0 1-.89-.881 2.473 2.473 0 0 1 .181-.191l3.407-3.407c.075-.067.139-.137.216-.218z" transform="translate(-656.554 -387.742)" ></path>
         <path data-name="Path 5625" d="M654.255 392.592c-.076-.08-.139-.15-.206-.217l-3.406-3.408a2.164 2.164 0 0 1-.2-.211.629.629 0 0 1 .881-.881 1.687 1.687 0 0 1 .174.161l3.984 3.983c.421.421.421.723 0 1.143q-1.992 1.992-3.988 3.98a1.079 1.079 0 0 1-.458.281.558.558 0 0 1-.627-.283.587.587 0 0 1 .016-.691 1.729 1.729 0 0 1 .213-.233l3.406-3.408c.07-.065.135-.135.211-.216z" transform="translate(-650.308 -387.742)" ></path>
     </g>
 </svg>