<svg xmlns="http://www.w3.org/2000/svg" viewBox="0 0 20 20" id="informationicon">
    <defs>
        <clipPath id="olg20nes6a">
            <path data-name="Rectangle 16618" transform="translate(-3957 16317)" style="fill:#fff;stroke:#707070" d="M0 0h20v20H0z"/>
        </clipPath>
    </defs>
    <g data-name="Mask Group 155" transform="translate(3957 -16317)" style="clip-path:url(#olg20nes6a)">
        <g data-name="Group 37949">
            <path data-name="Path 9224" d="M-1409.581-76.358h5.09a4.551 4.551 0 0 1 4.635 4.645v8.736a4.35 4.35 0 0 1-1.3 3.18q-.8.81-1.612 1.611a4.328 4.328 0 0 1-3.149 1.277h-8.774a4.55 4.55 0 0 1-4.62-4.623q-.008-5.108 0-10.217a4.549 4.549 0 0 1 4.595-4.609c1.716-.005 3.426 0 5.135 0zm8.205 12.7V-71.685a3.035 3.035 0 0 0-3.167-3.147h-10.064a3.036 3.036 0 0 0-3.176 3.175v10.064a3.038 3.038 0 0 0 3.184 3.168H-1406.61v-2.053a3.057 3.057 0 0 1 3.18-3.181c.669-.006 1.338-.004 2.055-.004zm-3.69 5.072c.943-.115 3.462-2.648 3.52-3.542-.72 0-1.441-.033-2.158.009a1.409 1.409 0 0 0-1.348 1.273c-.063.746-.013 1.499-.013 2.254z" transform="translate(-2537.419 16393.906)"/>
            <path data-name="Path 9225" d="M-1406.439-68.774h4.289c.562 0 .9.279.914.741s-.341.779-.915.779h-8.654c-.573 0-.926-.305-.914-.78s.352-.74.915-.74q2.182-.002 4.365 0z" transform="translate(-2540.522 16390.805)"/>
            <path data-name="Path 9226" d="M-1406.513-59.671h-4.289c-.575 0-.927-.3-.916-.777s.351-.743.911-.743h8.655c.576 0 .927.3.916.776s-.352.743-.911.744q-2.184.002-4.366 0z" transform="translate(-2540.522 16387.705)"/>
            <path data-name="Path 9227" d="M-1408.736-52.09h-2.125a.77.77 0 0 1-.858-.758.768.768 0 0 1 .855-.76q2.143-.005 4.287 0a.769.769 0 0 1 .858.757.77.77 0 0 1-.855.761c-.72.004-1.441 0-2.162 0z" transform="translate(-2540.522 16384.605)"/>
        </g>
    </g>
</svg>
