<svg xmlns="http://www.w3.org/2000/svg"  viewBox="0 0 9.789 9.783" id="ListArrow">
    <g data-name="Group 11376">
        <path data-name="Path 6309" d="M-2091.1-2424.686h-6.089a1.5 1.5 0 0 1-.215-.005.379.379 0 0 1-.337-.4.368.368 0 0 1 .349-.36 1.558 1.558 0 0 1 .191 0h6.766c.52 0 .71.188.71.7v6.957a.386.386 0 0 1-.375.363.389.389 0 0 1-.386-.353 1.862 1.862 0 0 1 0-.215v-6.128c-.1.091-.163.151-.226.213l-7.489 7.488c-.29.29-.5.333-.691.139s-.138-.395.141-.674l7.473-7.471c.067-.068.144-.125.217-.188z" transform="translate(2099.259 2425.703)"/>
    </g>
</svg>
