<svg xmlns="http://www.w3.org/2000/svg" viewBox="0 0 20 20" id="locationicon">
    <defs>
        <clipPath id="nwfzfol9aa">
            <path data-name="Rectangle 16618" transform="translate(-3957 16317)" style="stroke:#707070;fill:#f30a11" d="M0 0h20v20H0z"/>
        </clipPath>
    </defs>
    <g data-name="Mask Group 155" transform="translate(3957 -16317)" style="clip-path:url(#nwfzfol9aa)">
        <g data-name="Group 38001">
            <path data-name="Path 10011" d="M913.493 5472.806a8.049 8.049 0 0 1 15.981-1.323 8.406 8.406 0 0 1-1.415 6.054 22.2 22.2 0 0 1-3.977 4.475q-.8.724-1.609 1.427a1.3 1.3 0 0 1-1.732.083 32.616 32.616 0 0 1-5.005-4.991 10.459 10.459 0 0 1-2.074-4.333c-.087-.458-.114-.928-.169-1.392zm14.972-.194a10.116 10.116 0 0 0-.124-1.075 6.891 6.891 0 0 0-11.119-4.069 6.557 6.557 0 0 0-2.5 6.3 8.535 8.535 0 0 0 1.72 3.842 31.421 31.421 0 0 0 4.876 4.958.313.313 0 0 0 .484-.017c.327-.3.664-.592 1-.887a23.279 23.279 0 0 0 4.21-4.563 7.923 7.923 0 0 0 1.453-4.489z" transform="translate(-4868.538 10852.691)" style="stroke-width:.5px;"/>
            <path data-name="Path 10012" d="M926.074 5473.163a3.54 3.54 0 1 1-3.6 3.477 3.552 3.552 0 0 1 3.6-3.477zm-.1 1.113a2.427 2.427 0 1 0 2.481 2.375 2.445 2.445 0 0 0-2.478-2.376z" transform="translate(-4873.011 10848.528)" style="stroke-width:.5px;"/>
        </g>
    </g>
</svg>
