<svg xmlns="http://www.w3.org/2000/svg" width="4.692" height="7.982" viewBox="0 0 4.692 7.982">
    <g data-name="Group 14862">
        <path data-name="Path 7904" d="M5151.84 7280.015a1.732 1.732 0 0 0-.173.127q-1.384 1.381-2.768 2.767c-.284.286-.273.49 0 .787.419.46.649.339.977.006 1.087-1.1 2.187-2.193 3.282-3.289.3-.3.3-.5 0-.807l-3.374-3.375c-.293-.293-.489-.281-.8 0-.412.375-.362.618-.005.968.9.883 1.79 1.782 2.684 2.675.037.038.088.069.177.141z" transform="translate(-5148.69 -7276.015)" style="fill:#fff"/>
    </g>
</svg>
