<svg xmlns="http://www.w3.org/2000/svg" id="pagination-previous" viewBox="0 0 6.34 10.933">
    <g data-name="Group 10820">
        <g data-name="Group 10813">
            <g data-name="Group 10812">
                <path data-name="Path 5806" d="M5.462 2.094 9 5.638c.14.14.274.285.421.417a.858.858 0 0 0 1.252.021.845.845 0 0 0-.045-1.251C9.665 3.838 8.681 2.866 7.7 1.889 7.222 1.406 6.741.922 6.256.442c-.589-.582-.988-.59-1.561-.019Q2.557 2.552.428 4.689C-.084 5.2-.137 5.7.27 6.095c.392.376.875.321 1.368-.171C2.9 4.669 4.149 3.41 5.462 2.094z" transform="rotate(-90 5.467 5.466)"  />
            </g>
        </g>
    </g>
</svg>
