<svg xmlns="http://www.w3.org/2000/svg" id="phone" width="17.054" height="17.058" viewBox="0 0 17.054 17.058">
    <g data-name="Group 37909">
        <path data-name="Path 9201" d="M2035.558 5508.252a2.312 2.312 0 0 1 .768-1.844c.385-.352.738-.739 1.114-1.1a1.221 1.221 0 0 1 1.906 0q.98.954 1.932 1.936a1.205 1.205 0 0 1-.007 1.922c-.339.354-.678.707-1.043 1.031a.532.532 0 0 0-.123.751 11.254 11.254 0 0 0 2.9 3.486 23.593 23.593 0 0 0 2.011 1.35.36.36 0 0 0 .524-.08c.354-.369.717-.729 1.081-1.089a1.241 1.241 0 0 1 2.021-.01q.925.914 1.84 1.838a1.254 1.254 0 0 1-.007 2.026c-.336.339-.687.665-1.008 1.019a2.5 2.5 0 0 1-2.3.771 9.44 9.44 0 0 1-3.547-1.268 16.967 16.967 0 0 1-7.3-7.833 7.15 7.15 0 0 1-.762-2.906z" transform="translate(-2035.558 -5503.227)" style="fill:#fff"/>
        <path data-name="Path 9202" d="M2054.532 5501.317a9.722 9.722 0 0 1 8.24 8l-1.287.219a8.475 8.475 0 0 0-7.136-6.916z" transform="translate(-2045.718 -5501.318)" style="fill:#fff"/>
        <path data-name="Path 9203" d="m2053.97 5510.054.177-1.262a5.737 5.737 0 0 1 4.948 4.794l-1.258.214a4.642 4.642 0 0 0-3.867-3.746z" transform="translate(-2045.513 -5505.359)" style="fill:#fff"/>
    </g>
</svg>
