<svg xmlns="http://www.w3.org/2000/svg" viewBox="0 0 20 20" id="pricetag"> 
    <defs>
        <clipPath id="b2x8j3rkia">
            <path data-name="Rectangle 16618" transform="translate(-3957 16317)" style="fill:#fff;stroke:#707070" d="M0 0h20v20H0z"/>
        </clipPath>
    </defs>
    <g data-name="Mask Group 155" transform="translate(3957 -16317)" style="clip-path:url(#b2x8j3rkia)">
        <g data-name="Group 38002">
            <path data-name="Path 10013" d="M1521.014 5408.458c0 .781.006 1.561 0 2.342a3.857 3.857 0 0 1-1.143 2.776q-3.761 3.782-7.545 7.544a2.054 2.054 0 0 1-2.992.005q-2.769-2.751-5.517-5.524a2.06 2.06 0 0 1 .014-3.019q3.723-3.743 7.458-7.474a3.955 3.955 0 0 1 2.9-1.2h4.646a2.071 2.071 0 0 1 2.176 2.2c.004.792.003 1.569.003 2.35zm-4.6-3.146h-2.267a2.589 2.589 0 0 0-1.9.8q-3.692 3.694-7.377 7.392a.712.712 0 0 0 0 1.184q2.674 2.687 5.354 5.368a.713.713 0 0 0 1.185.007q3.7-3.686 7.389-7.38a2.661 2.661 0 0 0 .815-1.966c-.007-1.535 0-3.072 0-4.607 0-.555-.238-.792-.789-.795-.803-.007-1.608-.003-2.414-.003z" style="stroke-width:.35px;" transform="translate(-5459.09 10914.158)"/>
            <g data-name="Path 10014" style="stroke-linecap:square;">
                <path d="M1537.16 5416.544h-.005a1.89 1.89 0 0 1-1.349-.567 1.914 1.914 0 0 1-.555-1.374c.01-1.036.87-1.878 1.92-1.878h.005c.517.002.996.199 1.349.556.357.361.551.85.547 1.379a1.89 1.89 0 0 1-1.912 1.884zm.005-2.775a.857.857 0 0 0-.616.248.868.868 0 0 0-.243.626c.005.48.37.844.85.848h.007a.87.87 0 0 0 .627-.253.856.856 0 0 0 .24-.62.849.849 0 0 0-.853-.849h-.012z" style="stroke:none" transform="translate(-5480.29 10908.42)"/>
                <path d="M1537.17 5412.9c-.952 0-1.735.765-1.744 1.704a1.742 1.742 0 0 0 1.734 1.765c.966 0 1.729-.751 1.737-1.71a1.746 1.746 0 0 0-.496-1.255 1.715 1.715 0 0 0-1.226-.504h-.005m-.007 2.766h-.008a1.014 1.014 0 0 1-1.024-1.021 1.04 1.04 0 0 1 .294-.751c.19-.194.454-.3.74-.3h.014c.577.007 1.019.447 1.027 1.022.004.286-.1.55-.291.745-.194.197-.461.305-.752.305m.007-3.116h.007c1.172.004 2.08.929 2.07 2.111a2.075 2.075 0 0 1-2.087 2.058h-.006a2.092 2.092 0 0 1-2.078-2.118 2.081 2.081 0 0 1 2.094-2.051zm-.007 2.766a.67.67 0 0 0 .693-.695.673.673 0 0 0-.682-.677h-.01a.665.665 0 0 0-.683.697.665.665 0 0 0 .677.675h.005z" style="stroke:none" transform="translate(-5480.29 10908.42)"/>
            </g>
        </g>
    </g>
</svg>
