<svg xmlns="http://www.w3.org/2000/svg" viewBox="0 0 20 20" id="propertyimgs"> 
    <defs>
        <clipPath id="c6136we8ia">
            <path data-name="Rectangle 16618" transform="translate(-3957 16317)" style="fill:#fff;stroke:#707070" d="M0 0h20v20H0z"/>
        </clipPath>
    </defs>
    <g data-name="Mask Group 155" transform="translate(3957 -16317)" style="clip-path:url(#c6136we8ia)">
        <g data-name="Group 38004">
            <path data-name="Path 9217" d="m-755.552 12.82 1.181-1.417c.227-.273.446-.553.68-.819a2.4 2.4 0 0 1 3.67 0c.278.316.541.645.842 1.006l1.578-1.8c.279-.318.554-.64.835-.957a2.469 2.469 0 0 1 3.806 0c1.029 1.167 2.049 2.343 3.073 3.515.133.152.268.3.491.552V7.772c0-.464.245-.744.628-.752a.637.637 0 0 1 .665.68c0 2.416.07 4.836-.035 7.248a4.024 4.024 0 0 1-4.106 3.86q-5.242.039-10.484 0a4.125 4.125 0 0 1-4.155-4.177q-.029-5.223 0-10.446a4.12 4.12 0 0 1 4.122-4.167c2.294-.033 4.587-.01 6.88-.007.512 0 .8.261.789.682-.01.4-.285.628-.79.628h-6.594a2.875 2.875 0 0 0-3.1 3.09v7.905c.003.133.014.263.024.504zm8.067 4.682c1.706 0 3.412.008 5.118 0a2.851 2.851 0 0 0 2.847-2.245.7.7 0 0 0-.183-.7q-2.106-2.374-4.192-4.766a1.178 1.178 0 0 0-2 0q-1.359 1.559-2.721 3.115c-.431.49-.807.486-1.222-.006-.369-.439-.727-.887-1.1-1.323a1.134 1.134 0 0 0-1.906.009c-.825 1-1.64 2.009-2.477 3a.755.755 0 0 0-.155.752 2.859 2.859 0 0 0 2.833 2.163c1.719.009 3.443-.001 5.158-.001z" transform="translate(-3199.513 16317.586)"/>
            <path data-name="Path 9218" d="M-728.669 2.64c.673 0 1.285-.014 1.9 0 .542.015.894.488.644.9a.943.943 0 0 1-.641.387c-.607.053-1.222.018-1.9.018v1.244c0 .232.01.465 0 .7a.65.65 0 0 1-.667.679.637.637 0 0 1-.638-.7c-.01-.491 0-.982 0-1.474 0-.133-.013-.266-.023-.447h-1.734c-.569 0-.856-.219-.86-.642 0-.441.293-.669.882-.671h1.736c0-.64-.025-1.251.013-1.858a.957.957 0 0 1 .283-.627c.424-.344.993-.008 1.012.587.008.616-.007 1.229-.007 1.904z" transform="translate(-3211.549 16317.579)"/>
            <path data-name="Path 9219" d="M-746.866 7.616a2.407 2.407 0 0 1-2.382 2.414 2.416 2.416 0 0 1-2.429-2.413 2.434 2.434 0 0 1 2.408-2.4 2.417 2.417 0 0 1 2.403 2.399zm-1.312 0a1.106 1.106 0 0 0-1.1-1.082 1.108 1.108 0 0 0-1.081 1.105 1.1 1.1 0 0 0 1.1 1.078 1.1 1.1 0 0 0 1.081-1.101z" transform="translate(-3202.099 16315.001)"/>
        </g>
    </g>
</svg>
