<svg xmlns="http://www.w3.org/2000/svg"  viewBox="0 0 15.001 15.002" id="searchicon">
    <g data-name="Group 38207">
        <path data-name="Path 43227" d="m12.009 10.948 2.449 2.447c.091.091.184.181.273.273a.759.759 0 0 1 .044 1.121.754.754 0 0 1-1.1-.051c-.353-.34-.7-.692-1.043-1.039l-1.692-1.7a6.681 6.681 0 0 1-5.625 1.315 6.538 6.538 0 0 1-4.018-2.616 6.712 6.712 0 0 1 .8-8.844 6.727 6.727 0 0 1 8.9-.33 6.764 6.764 0 0 1 1.012 9.424zm-.046-4.208a5.208 5.208 0 0 0-5.222-5.242 5.223 5.223 0 0 0-5.243 5.229 5.219 5.219 0 0 0 5.229 5.239 5.2 5.2 0 0 0 5.236-5.226z"/>
    </g>
</svg>
