<svg xmlns="http://www.w3.org/2000/svg" width="18" height="18" viewBox="0 0 18 18">
    <defs>
        <clipPath id="be0vvpmm6a">
            <path data-name="Rectangle 15797" style="fill:#fff;stroke:#707070" d="M0 0h18v18H0z"/>
        </clipPath>
    </defs>
    <g data-name="Group 37888">
        <g data-name="Mask Group 84" style="clip-path:url(#be0vvpmm6a)">
            <path data-name="Path 9199" d="M2885.774 5903.161a3.455 3.455 0 0 0-.745-.329c-.091-.033-.183-.065-.276-.1V5901.916a4.406 4.406 0 0 0-4.189-4.186q-1.2-.015-2.4-.015-1.227 0-2.455.015a4.348 4.348 0 0 0-4.113 3.615c-.052.36-.068.727-.084 1.081a21.75 21.75 0 0 1-.018.365 2.124 2.124 0 0 0-.645 4.074.33.33 0 0 1 .1.212c.011.809.01 1.63.009 2.426v.735c0 .783.153 1.032.844 1.289v1.431a.533.533 0 0 0 .132.4.5.5 0 0 0 .374.133H2872.661c.108 0 .2 0 .295.006h.04a.493.493 0 0 0 .518-.405c.051-.191.109-.382.166-.571.081-.265.163-.538.228-.814.037-.16.073-.186.255-.186q2.246.008 4.481.005h2.621c.111 0 .225-.008.339-.018s.219-.016.322-.016a.645.645 0 0 1 .371.079c.119.086.169.339.216.584a3.637 3.637 0 0 0 .085.37c.044.146.078.268.106.369.136.5.183.6.707.6h.497a.564.564 0 0 0 .431-.14.573.573 0 0 0 .135-.434 26.553 26.553 0 0 1 0-1.056v-.337c.683-.25.844-.511.844-1.29v-.815c0-.735 0-1.5-.007-2.244a.337.337 0 0 1 .232-.388 2.084 2.084 0 0 0 .232-3.627zm-2.179 8.382v1.089h-.019c-.027 0-.065 0-.1-.138a15.35 15.35 0 0 0-.214-.791l-.047-.161zm-10.532-.014-.042.149c-.09.321-.175.625-.277.923l-.063.02v-1.092zm11.387-4.746c.012.88.01 1.776.008 2.642v.87c0 .365 0 .365-.379.365h-11.806a1.158 1.158 0 0 1-.416-.037 1.1 1.1 0 0 1-.035-.4v-.919c0-.839 0-1.706.006-2.559a.589.589 0 0 0-.475-.646 1.247 1.247 0 0 1-.922-1.406 1.279 1.279 0 0 1 1.248-1.052h.114a1.258 1.258 0 0 1 1.137 1.286v3.127c0 .53.111.645.623.645h9.17c.514 0 .624-.114.625-.644v-1.02c0-.713 0-1.451.007-2.176a1.254 1.254 0 0 1 1.255-1.222h.066a1.262 1.262 0 0 1 1.187 1.329 1.213 1.213 0 0 1-.9 1.116.613.613 0 0 0-.514.701zm-.554-4.56c.043.479-.015.744-.462.955a1.794 1.794 0 0 0-.944 1.681c-.006.2 0 .4 0 .607v.131h-8.7v-.651a2.111 2.111 0 0 0-1.248-1.98.384.384 0 0 1-.149-.129 3.9 3.9 0 0 1 .756-2.93 3.384 3.384 0 0 1 2.651-1.319 131.7 131.7 0 0 1 2.18-.017c.829 0 1.657.006 2.486.013a3.532 3.532 0 0 1 3.43 3.414v.073a.86.86 0 0 0-.001.152zm-1.407 5.4v.212h-8.694v-.215c0-.343 0-.7.012-1.045a1.047 1.047 0 0 1 .175-.125.693.693 0 0 1 .078 0h8.052c.376 0 .376 0 .376.367z" transform="translate(-2869.134 -5896.603)" style="fill:#97a3bb"/>
        </g>
    </g>
</svg>
